<?xml version="1.0" encoding="utf-8"?>
<!-- Generator: Adobe Illustrator 17.1.0, SVG Export Plug-In . SVG Version: 6.00 Build 0)  -->
<!DOCTYPE svg PUBLIC "-//W3C//DTD SVG 1.1//EN" "http://www.w3.org/Graphics/SVG/1.1/DTD/svg11.dtd">
<svg version="1.1" id="Layer_1" xmlns="http://www.w3.org/2000/svg" xmlns:xlink="http://www.w3.org/1999/xlink" x="0px" y="0px"
	 viewBox="0 0 191 237" enable-background="new 0 0 191 237" xml:space="preserve">
<g>
	<g>
		<path fill="#E0A0B2" d="M52.042,95.41c-0.736-14.627-1.221-29.527,4.551-43.295C62.54,37.926,74.88,28.168,90.2,26.373
			c15.231-1.784,26.658,9.679,34.28,21.522c3.771,5.86,6.169,12.647,8.684,19.108c3.142,8.075,5.657,16.539,6.092,25.233
			c0.242,4.851,8.943,1.448,8.721-2.983c-0.469-9.384-3.441-18.283-6.747-27.003c-3.005-7.928-6.183-15.732-11.097-22.683
			c-4.642-6.566-10.527-12.584-17.475-16.681c-6.935-4.09-15.003-4.865-22.878-3.942c-17.321,2.029-31.096,13.285-39.373,28.112
			c-8.697,15.577-7.952,34.123-7.086,51.337C43.565,103.244,52.265,99.841,52.042,95.41L52.042,95.41z"/>
	</g>
</g>
<path fill="#042B2B" d="M163.174,207.649c0.498,5.975-4.452,11.265-11.056,11.816l-97.661,8.146
	c-6.604,0.551-12.362-3.846-12.861-9.821l-9.099-109.091c-0.498-5.975,4.452-11.265,11.056-11.816l97.661-8.146
	c6.604-0.551,12.362,3.846,12.861,9.821L163.174,207.649z"/>
<path fill="none" stroke="#E7ACCE" stroke-width="3" stroke-miterlimit="10" d="M163.174,207.649
	c0.498,5.975-4.452,11.265-11.056,11.816l-97.661,8.146c-6.604,0.551-12.362-3.846-12.861-9.821l-9.099-109.091
	c-0.498-5.975,4.452-11.265,11.056-11.816l97.661-8.146c6.604-0.551,12.362,3.846,12.861,9.821L163.174,207.649z"/>
<path fill="none" stroke="#E7ACCE" stroke-width="3" stroke-miterlimit="10" d="M156.369,204.743
	c0.361,4.332-3.227,8.167-8.015,8.567l-70.802,5.905c-4.788,0.399-8.963-2.789-9.324-7.12l-6.596-79.088
	c-0.361-4.332,3.227-8.167,8.015-8.567l70.802-5.905c4.788-0.399,8.963,2.789,9.324,7.12L156.369,204.743z"/>
<path fill="none" stroke="#E7ACCE" stroke-width="3" stroke-miterlimit="10" d="M150.42,202.037c0.23,2.761-2.057,5.206-5.109,5.46
	l-45.127,3.764c-3.052,0.255-5.712-1.777-5.943-4.538l-4.204-50.408c-0.23-2.761,2.057-5.206,5.109-5.46l45.127-3.764
	c3.052-0.255,5.712,1.777,5.943,4.538L150.42,202.037z"/>
</svg>
