<?xml version="1.0" encoding="utf-8"?>
<!-- Generator: Adobe Illustrator 17.1.0, SVG Export Plug-In . SVG Version: 6.00 Build 0)  -->
<!DOCTYPE svg PUBLIC "-//W3C//DTD SVG 1.1//EN" "http://www.w3.org/Graphics/SVG/1.1/DTD/svg11.dtd">
<svg version="1.1" id="Layer_1" xmlns="http://www.w3.org/2000/svg" xmlns:xlink="http://www.w3.org/1999/xlink" x="0px" y="0px"
	 viewBox="0 232 648 175" enable-background="new 0 232 648 175" xml:space="preserve">
<g>
	<g>
		<path fill="#BFB497" d="M123,242.8v9.6H76.9V397h-9.5V252.3H17.6v-9.6C17.6,242.8,123,242.8,123,242.8z"/>
		<path fill="#BFB497" d="M400.7,242.8v9.6h-46.1V397h-9.5V252.3h-49.8v-9.6C295.4,242.8,400.7,242.8,400.7,242.8z"/>
		<path fill="#BFB497" d="M516.3,252.3h-95.8v40.8h71.6v9.6h-71.6v84.8h95.8v9.6H411V242.8h105.3V252.3z"/>
		<path fill="#BFB497" d="M598.3,267.3c-1-2.8-2.6-5.3-4.6-7.6c-2-2.3-4.6-4.2-7.6-5.7c-3.1-1.5-6.6-2.3-10.6-2.3
			c-3.4,0-6.6,0.6-9.6,1.9c-2.9,1.2-5.5,2.9-7.7,5.1c-2.2,2.2-3.9,4.8-5.1,7.8c-1.2,3-1.9,6.3-1.9,9.8c0,3.4,0.6,6.5,1.9,9.6
			c1.2,3,2.9,5.7,5.1,7.9c2.2,2.3,4.7,4.1,7.7,5.4c3,1.3,6.2,2,9.7,2c5.7,0,11.3,1.1,16.9,3.4c5.6,2.3,10.6,5.5,15.1,9.7
			c4.5,4.2,8.1,9.2,10.8,15.1c2.7,5.9,4.1,12.5,4.1,19.7c0,3.2-0.4,6.6-1.3,10.3c-0.9,3.6-2.1,7.2-3.9,10.8c-1.7,3.6-3.9,7-6.5,10.2
			c-2.6,3.2-5.7,6.1-9.3,8.5c-3.6,2.5-7.6,4.4-12.1,5.9c-4.5,1.5-9.5,2.2-15,2.2c-7.2,0-13.7-1.4-19.6-4.1
			c-5.9-2.7-10.9-6.2-15.1-10.5c-4.2-4.3-7.4-9.2-9.7-14.7c-2.3-5.5-3.4-10.9-3.4-16.4h9.2c0,1.4,0.2,3.2,0.6,5.5
			c0.4,2.3,1.1,4.8,2.2,7.6c1.1,2.7,2.5,5.5,4.4,8.3c1.9,2.8,4.2,5.3,7.1,7.6c2.9,2.3,6.3,4.1,10.4,5.6c4,1.4,8.8,2.2,14.3,2.2
			c5,0,9.8-0.9,14.5-2.6c4.7-1.7,8.8-4.3,12.3-7.6c3.6-3.3,6.4-7.4,8.5-12.2c2.1-4.8,3.2-10.2,3.2-16.2c0-4.9-0.8-9.6-2.4-14.3
			c-1.6-4.7-4-8.8-7.3-12.5c-3.2-3.7-7.2-6.6-12-8.8c-4.8-2.2-10.3-3.3-16.7-3.3c-4.9,0-9.4-1.1-13.5-3.2c-4-2.1-7.5-4.8-10.4-8.1
			c-2.9-3.3-5.1-6.9-6.6-11c-1.5-4-2.3-7.9-2.3-11.7c0-3.2,0.6-6.8,1.9-10.7s3.2-7.6,5.9-11c2.7-3.4,6.2-6.2,10.4-8.5
			c4.3-2.3,9.4-3.4,15.3-3.4c4.6,0,8.6,0.7,12,2c3.4,1.3,6.4,3.1,8.8,5.1c2.5,2.1,4.5,4.4,6.1,6.9c1.6,2.5,2.9,5,3.8,7.4
			c0.9,2.4,1.6,4.6,2,6.6c0.4,2,0.6,3.4,0.6,4.3h-9.2C599.8,272.7,599.3,270.1,598.3,267.3z"/>
	</g>
	<rect x="144.1" y="253.5" fill="none" stroke="#BFB497" stroke-width="9" stroke-miterlimit="10" width="124.7" height="130.4"/>
	<g>
		<g>
			<g>
				<g>
					<path fill="#BFB497" d="M157.1,290.6c-0.7,0.5-1.4,1-1.4,1c0,0.1,0.1,0.1,0.2,0.2C156.3,291.4,156.7,291,157.1,290.6z"/>
					<path fill="#BFB497" d="M156.9,287.1l-0.5,0.3c0.1,0,0.1,0.1,0.2,0.1C156.7,287.4,156.7,287.3,156.9,287.1z"/>
					<path fill="#BFB497" d="M155.8,291.8c0.6,0.7,1.8,1,1.6,2.3c-0.8,0.5-2.3,1.6-3,2.2c-0.4,1,0.6,0.8,0.9,1.2
						c-0.7,0.5-1.4,1.1-1.3,1.3c-0.1,0.9,1,0.6,2.5-0.3C157.7,293.9,166.3,287.2,155.8,291.8z"/>
					<path fill="#BFB497" d="M161.3,285.8l-4.4,2.8c-0.1,0.8-0.4,1.7,0.4,1.9C159.2,288.7,160.3,287.4,161.3,285.8z"/>
					<path fill="#BFB497" d="M270.3,380.3c0-0.2,0.1-0.2,1,0.2C271,380.4,270.7,380.4,270.3,380.3c0,0.1,0,0.4-0.5,0.3
						c3.7,0.5,8,0.9,12.2,1.2c0.6-0.2,1.1-0.4,1.6-0.7c-5.1-0.4-10.2-1.1-15.1-2c-4.9-0.9-9.6-2-14-3.5
						C260.4,378.4,264.6,379.2,270.3,380.3z"/>
					<path fill="#BFB497" d="M284.5,379.7c0.3,0,0.7,0.1,1,0.1C284.7,379.5,284.6,379.6,284.5,379.7z"/>
					<path fill="#BFB497" d="M188.2,349.8c-5,3.8-9.2,7.7-13.8,11.4c10.3-7,19.7-14.7,26.2-20.4
						C196.5,343.8,192.3,346.8,188.2,349.8z"/>
					<path fill="#BFB497" d="M143.7,374.8c6.4,0.5,11-1,15-2.4c3.8-1.6,7-3.4,9.9-5.3c-3,1.7-6.3,3.2-9.8,4.6
						c-1.8,0.7-3.7,1.2-5.7,1.7c-2.2,0.4-4.1,0.9-6.6,0.9C145.5,374.5,144.6,374.7,143.7,374.8z"/>
					<path fill="#BFB497" d="M155.6,371.7c8.6-2.5,13.8-6.6,18.8-10.5C168.6,365.2,162.4,368.9,155.6,371.7z"/>
					<path fill="#BFB497" d="M255.6,329.2c-0.6,3.9-1.3,7.3-1.5,9.7c-0.3,1.5-0.1,1.5-0.1,2c0,0.4,0,0.7,0,1
						c0.3,0.5,0.7,1.2,1.2,2.1c0-0.2,0-0.4,0-0.6c-0.1-2-0.5-2,0.6-7.4c0.9-4.5,1.9-8.9,2.6-13.1c0.1-1.6,0.2-3.2,0.2-4.6
						c-0.1-1.3-0.1-2.6-0.2-3.7C257.9,319.1,256.9,324.1,255.6,329.2z"/>
					<path fill="#BFB497" d="M253.9,341.8c-1.2-2.2-1.3-1.2-1,0C253.2,343,253.9,344.1,253.9,341.8z"/>
					<path fill="#BFB497" d="M243.2,314.6c0-0.2,0-0.4,0-0.6c-0.1-0.5-0.2-1-0.3-1.5C243.1,313.2,243.1,313.9,243.2,314.6z"/>
					<path fill="#BFB497" d="M201.8,325.7c3.2-2.4,6.3-4.9,9.4-7.5c-3.2,2.5-6.4,5-9.5,7.5c-1.5,1.2-3,2.4-4.5,3.5
						c-1.5,1.2-3,2.4-4.3,3.5c0.8-0.6,1.8-1,2.7-1.6C197.2,329.5,199.3,327.4,201.8,325.7z"/>
					<path fill="#BFB497" d="M240.4,342.6c-0.1-5.7,1.2-11,2-15.7c0.8-4.7,1.5-9.1,0.9-12.9c0-2-0.4-3.9-1.1-5.7l-0.3-0.7
						c-0.1-0.1-0.1-0.2-0.2-0.3l-0.3,0.2l-1.3,0.7l-2.6,1.5c-6.3,3.8-11.9,8.1-16.9,12.3c-5.8,4.9-11.4,9.7-16.9,14.4
						c-6.1,5.2-14.7,12.4-24.2,19.4c-4.7,3.5-9.6,6.8-14.7,9.8c-5,3-10.2,5.7-15.9,7.3c1.2-0.1,2.4-0.3,3.5-0.4
						c1.2-0.2,2.1-0.5,3.2-0.7c-0.7,0.3-1.4,0.6-2.1,0.9c-0.7,0.3-1.5,0.5-2.3,0.7c-0.8,0.2-1.5,0.4-2.3,0.7
						c-0.8,0.2-1.6,0.3-2.5,0.5c-1,0-2,0.1-3,0.1l-13.6,0.4l2.5-14.6c0.8-4.8,2.4-8.9,4.1-12.6c1.7-3.7,3.7-7,5.8-10.1
						c4.1-6.2,8.6-11.7,13-16.8c2.2-2.5,4.3-5,6.5-7.5c2.6-2.9,5.2-5.6,7.8-8.1c5.2-4.9,10.4-9.3,15.4-13.7c1.6-1.3,2.7-2.6,3.9-3.9
						c1.1-1.1,2.9-3.1,2.6-2.8c0.4-0.4,0.7-0.7,0.9-1.1c-0.1,0-0.1,0-0.2,0c0.5-0.8,0.6-1.6-0.3-1.5c-0.8,0.3-1.5,0.7-1.8,1.2
						c-0.2,0.3,0,0-0.1,0c0,0,0-0.1-0.3-0.1c-0.4,0.1-0.8,0.1-1.1,0.1c-0.7,0-1.2-0.1-2.1,0.1c-7.4,2-13,3.7-20.7,7.7
						c0,0-0.3-0.4-0.4-0.6c-1.1,0.7-2.1,1.4-2.9,1.8c1.8-4.6,10.9-10.9-0.1-6.8l0,0c0.5-0.4,1-0.8,1.4-1.1l0.2-0.1l0,0
						c2.1-1.8,3.3-3,4.4-4.5c-1.5,0.8-3.1,1.7-4.6,2.6c0.1-0.5,0.1-0.9-0.2-1.1c0.1-0.1,0.2-0.3,0.3-0.4c0.7-0.4,1.3-0.7,1.3-0.7
						c0.1-0.3,0.2-0.6,0.2-0.8c3.5-3.3,9.9-7.1,8.2-7.4c-1.2,0.1-4.1,1.9-7.4,4.2c-0.3,0-0.5,0.1-0.8,0.2c4.4-2.7-0.8-1.5,1.8-3.3
						c3.7-2,7.3-4,11.1-5.8c2-0.9,4-1.8,6-2.6c2.3-0.9,4.5-1.8,6.7-2.6c2.2-0.8,4.4-1.5,6.6-2.2c2.2-0.7,4.3-1.2,6.5-1.8
						c2.2-0.6,4.3-0.9,6.4-1.4c2.1-0.4,4.2-0.6,6.4-0.9c2.2-0.2,4.3-0.4,6.6-0.5c2.3,0,4.5-0.2,7.1,0l2.5,0.1l0.1,0l0.5,0.3
						c0,0.2-0.1,0.5-0.2,0.8l-0.4,1.6c-0.3,1-0.5,2.2-0.9,3.1c-0.8,1.9-1.4,4-2.3,5.8c-0.9,1.8-1.7,3.7-2.8,5.5l-1.6,2.7l-2,2.7
						c0.1-0.4,0.2-0.9,0.3-1.3c-4,5.8-9.1,11.2-14.4,16.8c-1.6,1.7-3.3,3.5-5.1,5.2l-4.2,4.2c-2.8,2.7-5.6,5.4-8.4,8.1
						c-5.6,5.4-11.3,10.6-16.2,16.5c-5.3,6.1-10.4,11.9-14.7,18c-2.2,3-4.1,6.1-5.6,9.3c-1.5,3.1-2.7,6.3-3,9.1
						c-2.4-3-4.7-6-7.3-9.4c0.7-0.1,1.4-0.1,2.2-0.3l-2.2,0.4c2.4,3.1,4.8,6.1,7.2,9.2c0.4-4.2,2.5-9.3,5.5-14
						c1.7-2.5,3.6-5,5.4-7.4c-2,2.4-3.8,4.9-5.4,7.4c-3.1,4.6-5.7,9.5-6.4,13.8c-2.1-2.7-4.3-5.5-6.3-8.1c4.1-0.1,9.1-2.3,12.5-5.3
						c0.9-0.2,1,0,1.9-0.4c5.8-2.9,11.7-6.5,16.1-10.7c-0.1-0.2,2.3-1.9,1.2-1.8c4.8-3.6,10.4-7.8,15.5-12c0.6-0.4,1.1-0.9,1.7-1.4
						c0.5-0.4,1-0.9,1.4-1.3c0.9-0.9,1.8-1.8,2.7-2.8c2.6-2.1,5.2-4.2,7.9-6.5l2-1.7l1.5-1.2l1.9-1.5c2.5-2,5.1-3.9,7.6-5.9
						c10.5-7.8,20.8-13.6,32.3-20.5c1.1,1.5,2.1,2.9,3.2,4.9c1.1,2.4,2.3,4.8,3.5,7.2c0.5,1.1,1,2.1,1.5,3.2l0.8,1.6l0.6,1.8
						c0.5,1.1,0.7,2.5,1,3.8c0.2,1.4,0.5,2.8,0.6,4.4c0.3,4.3-0.3,10-1.8,16.2c-0.7,3.1-1.6,6.2-2.3,9.3c-0.4,1.6-0.7,2.9-1,4.3
						l-0.2,1l-0.1,0.4l-0.1,0.6l0-1l0.5-3c0.3-2,0.9-4.2,1.3-6.3c0.9-4.2,1.8-8.5,2.1-12.3c0.9-7.8-0.2-13.6-2-18.3
						c-1-3-2.2-6-3.6-9.4c-0.4-0.9-0.8-1.8-1.2-2.6c-0.2-0.5-0.4-0.7-0.5-1l-0.5-0.8c-0.7-1.1-1.4-2-2.1-3
						c-4.5,2.7-8.5,5.2-12.4,7.9c-2.4,1.6-4.7,3.2-7,4.8c6.2-3.9,12.3-7.5,18.7-11.4c1.6,1.9,3.1,3,4.8,7c1.5,3.2,2.7,5.8,3.9,8.5
						c0.9,2.9,1.3,6.2,1.4,10c0,3.8-0.6,8.2-1.5,12.8c0-0.2,0-0.4,0.1-0.5c1.1-7.1,0.8-13-0.3-17.7c-0.1-1-0.4-2-0.6-3
						c-0.3-0.9-0.6-1.8-0.9-2.7c-0.6-1.8-1.3-3.6-2.1-5.5c-0.4-1-0.8-1.9-1.3-2.9l-0.7-1.5c-0.2-0.4-0.5-0.6-0.7-0.9
						c-0.9-1-1.8-1.9-2.7-2.7c-1.5,0.9-2.9,1.8-4.1,2.6c-1.2,0.8-2.3,1.6-3.5,2.4c-2.3,1.6-4.6,3.1-6.8,4.6c4.6-2.9,9-5.5,13.8-8.4
						c1.7,1.6,3.4,2.1,4.9,6.1c1,2.1,1.8,4.1,2.6,6l1.1,2.8c0.3,1,0.6,2,0.8,3c0.4,2.8,0.5,5.9,0.3,9.4c-0.1-0.3-0.1-0.6-0.2-0.9
						c0-1.5-1-3.4-1.9-4.3c-1-0.8-1.9-0.8-2.2,1.3c0.2,4.4-0.4,10.2-1.9,16.6c-0.7,3.1-1.5,6.4-2.1,9.5c-0.1,0.7-0.3,1.5-0.4,2.2
						c-0.1,0.7-0.1,0.9-0.2,1.3c-0.1,0.7-0.1,1.6-0.1,2.3c0,0.8,0,1.5,0,2.2c0,0.7,0.1,1.3,0.2,1.9c0.1,1.2,0.2,2.3,0.5,3
						c0.2,0.8,0.3,1.4,0.4,1.9c0.1,0.4,0.2,0.6,0.2,0.6c-0.5,0.6-2.3-3.7-2.4-9.3c0-0.7,0-1.4-0.1-2.1c0-0.7,0.1-1.3,0.1-1.9
						c0.2-1,0.3-2,0.5-3c0.2-1,0.4-1.9,0.5-2.7c0.7-3.3,1-5.4,0.9-5c-0.6,2.1-1.3,4.2-1.9,6.3c0.3-2,0.5-3.8,0.7-5.5
						c0.8-4,2-9.3,1.7-11.3c-0.3-3.6-0.3-7.3-1-11.2c-0.3-1.9-0.9-4-1.7-6l-0.7-1.5l-0.2-0.4c-0.1-0.1-0.2,0-0.3,0L246,299
						c-0.9,0.2-1.7,0.5-2.6,0.9c-0.4,0.2-0.7,0.3-1.2,0.5c-2.7,1.9-5.4,4.1-8.2,6.2c-2.7,2.2-5.3,4.5-7.8,6.7c0,0.6-2.6,2.1-1.7,2.1
						c-4.7,3.3-9.9,7.3-11.1,9.9l-0.3,0.3c-0.3,0.2-0.7,0.7-1.2,1.1c-4,2.7-7.2,5.3-10.3,8c-3,2.6-5.8,5.2-9,8.2
						c-2.4,1.9-4.8,3.7-7.4,5.6c1.7-1.2,4.4-2.8,5.9-4.2c0.5-0.5,1-0.9,1.5-1.4c3-2.4,5.9-4.7,8.8-7.1c3-2.4,5.9-4.7,8.8-7.2
						c0.4-0.5,1.1-1.2,1.7-1.9l1.3-0.9c0-0.2,0.1-0.3,0.2-0.5c2.7-2.5,5.3-4.6,8-7c2.9-2.4,5.7-4.7,8.1-6.8c3.3-2.6,6.9-5,10.5-7.1
						l2.5-1.3l1.3-0.6l0.6-0.3c0.2-0.1,0.5-0.3,0.5,0.1c0.9,1.8,1.4,3.7,1.6,5.7c0.4,3.9-0.3,7.9-1.1,11.7c0.4-2.7,0.6-5.3,0.4-7.8
						c-0.2-2.4-0.9-4.8-2.4-6.7c1.7,2.6,2.2,5.6,2.2,8.5c0,2.9-0.4,5.9-0.9,8.9c-0.2,1-0.5,1.9-0.7,2.9l-1.6,6.1
						c0.6-1.9,1.2-3.9,1.8-5.8c-0.6,3.6-1.4,7.5-1.8,11.5c-1.3,10,0.7,20.5,7.8,26.8c3.5,3.2,7.9,5.4,12.6,7
						c4.7,1.6,9.7,2.7,14.7,3.5c-0.4,0.2-0.9,0.5-1.5,0.7c-9.8-1.4-19.1-4.2-26.1-8.4c4.5,3.6,8.3,4.9,13.5,6.6
						c0,0.1-0.1,0.4-0.5,0.3c3.5,0.8,7.5,1.6,11.5,2.1c-1.4,0.4-2.9,0.8-4.5,1.1c-2.1,0.1-5.2-0.7-8.3-1.5
						c-6.5-2.1-12.8-5.3-17.2-10.8c-4.4-5.4-6.4-12.4-6.7-19.3c0-1.5,0.2-3.1,0.3-4.6c0-0.8,0.1-1.5,0.3-2.3l0.2-1.1l0.2-0.9
						c0.5-2.5,1.2-4.9,1.8-7.3c1.3-4.8,2.7-9.7,2.8-14.6c0.3,4.4-0.5,8.8-1.3,13.3c-0.4,2.3-0.9,4.6-1.2,7.1
						C240.4,337.4,240.2,340.1,240.4,342.6z M181.6,276.7c0.9-0.5,1.8-1.1,2.7-1.6l-0.5,0C182.9,275.6,182.1,276.1,181.6,276.7z
						 M196.5,271.3c-1.8,0.3-4.2,1.1-6.5,2.1c-1.2,0.6-2.3,1.1-3.5,1.7c-1.7,0.9-3.8,1.9-5.7,2.9c0,0.1,0,0.2,0,0.2
						c1.7-0.7,3.4-1.5,5.2-2.3c1.1-0.5,2.2-1,3.4-1.6C191.6,273.3,194,272.2,196.5,271.3z M199.5,277.7l0.2-0.2L199.5,277.7
						L199.5,277.7z M143.1,353c2.6-8.7,9.4-17.4,15.8-25.5c2.1-2.3,3.4-5.3,6.1-8.4c1.7-2.1,3.1-3.8,4.3-5.4c1.3-1.5,2.6-3.1,4-4.6
						c0,0-0.7,0.5-1.4,0.9c-0.7,0.5-1.4,1-1.4,1c5.7-5,7.9-8.9,13.7-13.2c-0.2-0.2,0.3-1.2,1.1-1.9c1.9-1.8,3.8-3.4,5.6-4.9
						c0.9-0.8,1.8-1.5,2.6-2.3l0.5-0.5l0.2-0.2c0.1-0.2,0.2-0.3,0.3-0.5c1.2-1.4,2.6-2.8,2.8-3.8c0.2-0.3-0.4-0.7-0.5-1
						c0.3-0.5,0.6-1,0.8-1.5c-0.1,0.1-0.3,0.1-0.4,0.2c-0.3,0.4-0.5,0.8-0.6,1.1c-0.1,1-1.1,2.7-2.4,4.3l-0.6,0.7l-0.2,0.2l-0.5,0.5
						l-1,1c-1.3,1.3-2.7,2.6-4,3.8c-2.7,2.6-5.4,5.1-8,7.7c-5.3,5.2-10.7,10.5-15.5,16.8c-1.8,2.4-3.5,5-5.4,7.6
						c-2.7,3.8-6,8-8.8,12.1c-2.8,4.1-5.1,8.3-5.9,11.6C144.1,349.7,143.2,351.7,143.1,353z M146.7,355.5c-0.7,0.1-1.4,0.2-2.1,0.3
						c2,2.5,4,5.2,6.1,7.8c0.3-3.7,1.9-8.1,4.2-12.1c2.3-4.1,5.2-7.9,8.1-11.3c2.5-3.1,7.4-9.1,11.2-14.5c3.5-5.1,6.3-9.1,3.8-8.8
						c-0.3,1.1-1.1,2.4-2.1,3.9c-1,1.6-2.2,3.2-3.6,5.2c-2.9,3.9-6.7,8.3-10.4,12.8c-3.6,4.5-7.2,9.2-9.6,13.6
						c-2.5,4.4-3.7,8.4-3.7,10.9c-1.4-1.9-2.9-3.7-4.2-5.4c1.3-0.3,2.2-0.5,2.6-1C147.4,356.5,147.3,356.1,146.7,355.5z
						 M216.4,306.8c-2.7,2.2-5.4,4.4-8.2,6.6c-1.7,1.4-3.4,2.8-5.3,4.2l5.1-4.2l1.7-1.3l2.2-1.7L216.4,306.8z M183.7,342.8
						c4.9-4.5,10.2-9.2,15.8-13.4c2.7-2.1,5.4-4.2,8-6.4c2.8-2.4,5.7-4.7,8.4-7c4.3-3.6,9.1-6.9,13.7-9.8c4.6-2.9,9.1-5.6,13.9-8.7
						c1.3-0.3,2.5-0.5,3.7-0.8l0.5-0.9l-0.9,0.2c-0.9-0.2-1.6-0.4-2.3-0.7c-2.4,1.1-4.4,2.1-6.6,3.2l0.6-0.4l-1.1,0.7
						c-2.2,1.1-4.6,2.6-7.4,4.5c-1.3,0.9-2.6,1.8-3.9,2.9c-1.8,1.3-3.6,2.6-5.4,3.9c-1.8,1.3-3.6,2.7-5.4,4.1c-4,3-5.9,4.7-8.5,6.8
						c-4.9,4.1-9.5,7.7-14.1,11.8c-5.5,4.8-9.6,9.5-15.1,14.1C179.5,345.7,182.1,344.2,183.7,342.8z"/>
					<path fill="#BFB497" d="M244.8,323.7c-0.7,4.2-1.7,8.8-2.4,13.6c-0.2,1.8-0.2,3.4-0.1,5.1l0.1,2.5c0.1,0.8,0.3,1.6,0.4,2.4
						c0.8,7.8,4.7,14.9,11.7,19.2c3.4,2.2,7.4,3.7,11.6,4.9c4.1,1.2,8.4,1.9,12.7,2.3c0.6-0.7,0.7-1.4,0.2-2.3
						c-8.9-1.6-17.7-3.7-24.1-8c-3.1-2.2-5.5-5-6.9-8.3c-1.5-3.4-1.8-7.4-1.6-11.6l-0.1-0.4c-0.1-0.9-0.3-1.9-0.3-2.9
						c0-0.5,0-1,0.1-1.6c0.1-0.8,0.2-1.6,0.3-2.4c0.6-3.3,1.4-6.8,2.1-10.3c1.4-7,1.8-13.1,0.8-17.7c-0.5-2.2-1.2-4.4-2.3-6.6
						c-0.3-0.5-0.6-1.1-0.9-1.6l-1.6,0.6c-1.1,0.4-2.2,0.9-3.3,1.4c-2.8,1.8-5.4,3.7-7.9,5.5c-2.5,1.9-4.9,3.8-7.2,5.8
						c2.3-1.6,4.6-3.1,6.9-4.7c2.4-1.5,4.7-3,7.1-4.4l3-1.5l1.5-0.7c0.1,0,0.3-0.2,0.4-0.1l0.2,0.4l0.4,0.8c0.9,2.1,1.3,4.4,1.4,6.7
						C247,314.4,246.1,319,244.8,323.7z"/>
					<path fill="#BFB497" d="M168.5,367.1c4-2.2,7.6-4.6,11.2-7c9.8-6.9,17.4-14,24.9-20.1c-5.8,4-11.9,8.8-18.3,13.2
						C180,358,174.9,362.7,168.5,367.1z"/>
					<path fill="#BFB497" d="M211.3,334.5c-2.1,1.9-4.5,3.7-6.7,5.5c4.8-3.3,9.4-6.8,13.8-10.2l1.7-1.3l0.9-0.7l1.6-1.3l3.4-2.8
						c2.2-1.8,4.6-3.8,7.3-5.7l2.8-1.9c0.1-0.1,0.2-0.2,0.3-0.2l0.2,0.3l0.4,0.5c0.2,0.4,0.4,0.8,0.6,1.2c0.6,1.6,0.7,3.4,0.6,5.3
						c-0.2,3.7-1.1,7.7-1.6,12.4c-0.1,1.2-0.5,4-0.4,6.1c0.1-1,0.1-2.1,0.3-3.1l0.2-1.5l0.2-1.1c0.3-1.5,0.7-2.8,1-4.2
						c0.8-2.8,1.6-5.6,2.2-8.4c0.6-2.8,1-5.7,0.7-8.5c-0.1-1.4-0.6-2.7-1.2-4c-1.2,0.5-2.5,1.4-3.7,2c-5.9,3.5-11.2,7.7-15.8,11.6
						c-6.3,5.3-12.4,10.4-18.3,15.3c-0.4,0.3-0.8,0.7-1.2,1.1c2.8-2,5.6-4,8.4-5.9c2.8-2.1,5.6-4.2,8.2-6.2l2-1.6l1.2-1l2.4-1.9
						c1.7-1.3,3.3-2.7,5.1-4c-2.6,2-4.8,4.1-6.9,5.9l-1.5,1.4l-2.7,2.3L211.3,334.5z"/>
					<path fill="#BFB497" d="M245.5,319.7c-0.2,1-0.4,2-0.7,2.9c-0.2,1.1-0.4,2.1-0.5,3.2c0.2-0.7,0.4-1.4,0.6-2.1
						C245.1,322.4,245.3,321,245.5,319.7z"/>
					<path fill="#BFB497" d="M237.9,298.6l-0.4,0.2c-1.9,1.1-3.8,2.4-5.6,3.6c-1.9,1.2-3.7,2.3-5.6,3.7c-2.6,2.1-5.2,4-7.8,6.1
						c-2.4,2-4.8,3.9-7.3,6c2.2-1.7,4.5-3.5,6.7-5.2c2.3-1.9,4.7-3.5,7-5.2c1.2-0.8,2.3-1.7,3.4-2.5c1.1-0.8,2.2-1.5,3.3-2.3
						C233.8,301.5,235.9,300,237.9,298.6z"/>
					<path fill="#BFB497" d="M203.6,314.5c-0.8,0.6-2.4,1.7-3.2,2.3l-1.2,1.4c0.8-0.5,1.5-1.1,2.3-1.6L203.6,314.5z"/>
					<path fill="#BFB497" d="M157.1,350.3c14.2-7.8,26.7-20,40.5-30.2c0.5-0.6,1.1-1.2,1.6-1.8c-2.2,1.5-4.4,3-6.6,4.6
						c-2.6,1.8-5,3.5-7.2,5.3c-4.4,3.5-8.4,6.9-12.2,10.3c-1.5,1.3-3.5,3.6-5.1,4.6c-3.8,2.5-7.5,4.9-11,7c-3.6,2-7.1,3.7-10.2,4.4
						c3-0.5,6.5-2,10-3.9L157.1,350.3z"/>
				</g>
			</g>
		</g>
	</g>
</g>
</svg>
